ffmpeg started on 2016-12-07 at 22:08:48
Report written to "Output/x264/results/ffmpeg/crowd_run_2160p50slower3000k.log"
Command line:
Tools/ffmpeg/ffmpeg -benchmark -y -i Input/y4m/crowd_run_2160p50.y4m -c:v libx264 -preset slower -b:v 3000k -an Output/x264/encoded/crowd_run_2160p50slower3000k.mkv
ffmpeg version N-82227-gdb23fde Copyright (c) 2000-2016 the FFmpeg developers
  built with gcc 5.4.0 (Ubuntu 5.4.0-6ubuntu1~16.04.2) 20160609
  configuration: --prefix=/home/jaroslav/ffmpeg_build --pkg-config-flags=--static --extra-cflags=-I/home/jaroslav/ffmpeg_build/include --extra-ldflags=-L/home/jaroslav/ffmpeg_build/lib --bindir=/home/jaroslav/bin --enable-gpl --enable-libass --enable-libfdk-aac --enable-libfreetype --enable-libmp3lame --enable-libopus --enable-libtheora --enable-libvorbis --enable-libvpx --enable-libx264 --enable-libx265 --enable-nvenc --enable-libmfx --enable-libxvid --enable-libgsm --enable-libopencore-amrnb --enable-version3 --enable-nonfree
  libavutil      55. 35.100 / 55. 35.100
  libavcodec     57. 66.101 / 57. 66.101
  libavformat    57. 57.100 / 57. 57.100
  libavdevice    57.  2.100 / 57.  2.100
  libavfilter     6. 66.100 /  6. 66.100
  libswscale      4.  3.100 /  4.  3.100
  libswresample   2.  4.100 /  2.  4.100
  libpostproc    54.  2.100 / 54.  2.100
Input #0, yuv4mpegpipe, from 'Input/y4m/crowd_run_2160p50.y4m':
  Duration: 00:00:10.00, start: 0.000000, bitrate: 4976642 kb/s
    Stream #0:0: Video: rawvideo (I420 / 0x30323449), yuv420p(progressive), 3840x2160, SAR 1:1 DAR 16:9, 50 fps, 50 tbr, 50 tbn, 50 tbc
[libx264 @ 0x29a51c0] using SAR=1/1
[libx264 @ 0x29a51c0] DPB size (8 frames, 259200 mbs) > level limit (5 frames, 184320 mbs)
[libx264 @ 0x29a51c0] using cpu capabilities: MMX2 SSE2Fast SSSE3 SSE4.2 AVX FMA3 AVX2 LZCNT BMI2
[libx264 @ 0x29a51c0] profile High, level 5.2
[libx264 @ 0x29a51c0] 264 - core 148 - H.264/MPEG-4 AVC codec - Copyleft 2003-2016 - http://www.videolan.org/x264.html - options: cabac=1 ref=8 deblock=1:0:0 analyse=0x3:0x133 me=umh subme=9 psy=1 psy_rd=1.00:0.00 mixed_ref=1 me_range=16 chroma_me=1 trellis=2 8x8dct=1 cqm=0 deadzone=21,11 fast_pskip=1 chroma_qp_offset=-2 threads=6 lookahead_threads=1 sliced_threads=0 nr=0 decimate=1 interlaced=0 bluray_compat=0 constrained_intra=0 bframes=3 b_pyramid=2 b_adapt=2 b_bias=0 direct=3 weightb=1 open_gop=0 weightp=2 keyint=250 keyint_min=25 scenecut=40 intra_refresh=0 rc_lookahead=60 rc=abr mbtree=1 bitrate=3000 ratetol=1.0 qcomp=0.60 qpmin=0 qpmax=69 qpstep=4 ip_ratio=1.40 aq=1:1.00
Output #0, matroska, to 'Output/x264/encoded/crowd_run_2160p50slower3000k.mkv':
  Metadata:
    encoder         : Lavf57.57.100
    Stream #0:0: Video: h264 (libx264) (H264 / 0x34363248), yuv420p, 3840x2160 [SAR 1:1 DAR 16:9], q=-1--1, 3000 kb/s, 50 fps, 1k tbn, 50 tbc
    Metadata:
      encoder         : Lavc57.66.101 libx264
    Side data:
      cpb: bitrate max/min/avg: 0/0/3000000 buffer size: 0 vbv_delay: -1
Stream mapping:
  Stream #0:0 -> #0:0 (rawvideo (native) -> h264 (libx264))
Press [q] to stop, [?] for help
frame=    8 fps=0.0 q=0.0 size=       0kB time=00:00:00.00 bitrate=N/A speed=   0x    frame=   11 fps= 10 q=0.0 size=       0kB time=00:00:00.00 bitrate=N/A speed=   0x    frame=   20 fps= 12 q=0.0 size=       0kB time=00:00:00.00 bitrate=N/A speed=   0x    frame=   37 fps= 16 q=0.0 size=       0kB time=00:00:00.00 bitrate=N/A speed=   0x    frame=   48 fps= 17 q=0.0 size=       0kB time=00:00:00.00 bitrate=N/A speed=   0x    frame=   58 fps= 16 q=0.0 size=       0kB time=00:00:00.00 bitrate=N/A speed=   0x    frame=   67 fps=9.5 q=0.0 size=       0kB time=00:00:00.00 bitrate=N/A speed=   0x    frame=   72 fps=9.4 q=45.0 size=       1kB time=-00:00:00.01 bitrate=N/A speed=N/A    frame=   74 fps=9.0 q=48.0 size=       1kB time=00:00:00.02 bitrate= 280.4kbits/s speed=0.00256x    frame=   77 fps=8.5 q=57.0 size=       1kB time=00:00:00.08 bitrate=  72.7kbits/s speed=0.00892x    frame=   81 fps=8.4 q=60.0 size=       1kB time=00:00:00.16 bitrate=  36.6kbits/s speed=0.0167x    frame=   83 fps=7.8 q=60.0 size=       1kB time=00:00:00.20 bitrate=  29.3kbits/s speed=0.0189x    frame=   89 fps=7.8 q=60.0 size=       1kB time=00:00:00.32 bitrate=  18.3kbits/s speed=0.028x    frame=   90 fps=7.3 q=60.0 size=       1kB time=00:00:00.34 bitrate=  17.3kbits/s speed=0.0277x    frame=   94 fps=7.3 q=60.0 size=       1kB time=00:00:00.42 bitrate=  14.0kbits/s speed=0.0325x    frame=   97 fps=7.0 q=60.0 size=       1kB time=00:00:00.48 bitrate=  12.2kbits/s speed=0.0349x    frame=   99 fps=6.9 q=60.0 size=       1kB time=00:00:00.52 bitrate=  11.3kbits/s speed=0.0362x    frame=  102 fps=6.8 q=59.0 size=       1kB time=00:00:00.58 bitrate=  10.1kbits/s speed=0.0389x    frame=  105 fps=6.8 q=59.0 size=       1kB time=00:00:00.64 bitrate=   9.2kbits/s speed=0.0414x    frame=  107 fps=6.7 q=59.0 size=       1kB time=00:00:00.68 bitrate=   8.6kbits/s speed=0.0424x    frame=  109 fps=6.6 q=59.0 size=       1kB time=00:00:00.72 bitrate=   8.2kbits/s speed=0.0434x    frame=  110 fps=6.4 q=59.0 size=       1kB time=00:00:00.74 bitrate=   7.9kbits/s speed=0.0433x    frame=  114 fps=6.4 q=59.0 size=       1kB time=00:00:00.82 bitrate=   7.2kbits/s speed=0.0463x    frame=  117 fps=6.3 q=59.0 size=       1kB time=00:00:00.88 bitrate=   6.7kbits/s speed=0.0473x    frame=  121 fps=6.2 q=59.0 size=       1kB time=00:00:00.96 bitrate=   6.1kbits/s speed=0.049x    frame=  125 fps=6.2 q=59.0 size=       1kB time=00:00:01.04 bitrate=   5.7kbits/s speed=0.0516x    frame=  127 fps=6.0 q=59.0 size=       1kB time=00:00:01.08 bitrate=   5.4kbits/s speed=0.0512x    frame=  131 fps=6.0 q=59.0 size=       1kB time=00:00:01.16 bitrate=   5.1kbits/s speed=0.0531x    frame=  133 fps=5.9 q=59.0 size=       1kB time=00:00:01.20 bitrate=   4.9kbits/s speed=0.0535x    frame=  135 fps=5.9 q=59.0 size=       1kB time=00:00:01.24 bitrate=   4.7kbits/s speed=0.0538x    frame=  139 fps=5.8 q=58.0 size=       1kB time=00:00:01.32 bitrate=   4.5kbits/s speed=0.0554x    frame=  142 fps=5.7 q=58.0 size=       1kB time=00:00:01.38 bitrate=   4.3kbits/s speed=0.0559x    frame=  145 fps=5.7 q=58.0 size=       1kB time=00:00:01.44 bitrate=   4.1kbits/s speed=0.0571x    frame=  148 fps=5.7 q=58.0 size=       1kB time=00:00:01.50 bitrate=   3.9kbits/s speed=0.0576x    frame=  150 fps=5.6 q=58.0 size=       1kB time=00:00:01.54 bitrate=   3.8kbits/s speed=0.0576x    frame=  154 fps=5.6 q=58.0 size=       1kB time=00:00:01.62 bitrate=   3.6kbits/s speed=0.0595x    frame=  156 fps=5.6 q=58.0 size=       1kB time=00:00:01.66 bitrate=   3.5kbits/s speed=0.0596x    frame=  158 fps=5.5 q=58.0 size=       1kB time=00:00:01.70 bitrate=   3.5kbits/s speed=0.0592x    frame=  162 fps=5.5 q=58.0 size=       1kB time=00:00:01.78 bitrate=   3.3kbits/s speed=0.0607x    frame=  164 fps=5.5 q=58.0 size=       1kB time=00:00:01.82 bitrate=   3.2kbits/s speed=0.0609x    frame=  166 fps=5.4 q=58.0 size=       1kB time=00:00:01.86 bitrate=   3.2kbits/s speed=0.061x    frame=  168 fps=5.4 q=58.0 size=       1kB time=00:00:01.90 bitrate=   3.1kbits/s speed=0.0611x    frame=  172 fps=5.4 q=58.0 size=       1kB time=00:00:01.98 bitrate=   3.0kbits/s speed=0.062x    frame=  175 fps=5.4 q=57.0 size=       1kB time=00:00:02.04 bitrate=   2.9kbits/s speed=0.0627x    frame=  177 fps=5.4 q=57.0 size=       1kB time=00:00:02.08 bitrate=   2.8kbits/s speed=0.0629x    frame=  178 fps=5.3 q=57.0 size=       1kB time=00:00:02.10 bitrate=   2.8kbits/s speed=0.0621x    frame=  184 fps=5.2 q=57.0 size=       1kB time=00:00:02.22 bitrate=   2.7kbits/s speed=0.0632x    frame=  189 fps=5.3 q=57.0 size=       1kB time=00:00:02.32 bitrate=   2.5kbits/s speed=0.0648x    frame=  190 fps=5.2 q=57.0 size=       1kB time=00:00:02.34 bitrate=   2.5kbits/s speed=0.0642x    frame=  193 fps=5.2 q=57.0 size=       1kB time=00:00:02.40 bitrate=   2.5kbits/s speed=0.0647x    frame=  196 fps=5.2 q=57.0 size=       1kB time=00:00:02.46 bitrate=   2.4kbits/s speed=0.0648x    frame=  200 fps=5.2 q=57.0 size=       1kB time=00:00:02.54 bitrate=   2.3kbits/s speed=0.0658x    frame=  202 fps=5.2 q=57.0 size=       1kB time=00:00:02.58 bitrate=   2.3kbits/s speed=0.0658x    frame=  203 fps=5.1 q=57.0 size=       1kB time=00:00:02.60 bitrate=   2.3kbits/s speed=0.0652x    frame=  208 fps=5.1 q=57.0 size=       1kB time=00:00:02.70 bitrate=   2.2kbits/s speed=0.0667x    frame=  210 fps=5.1 q=57.0 size=       1kB time=00:00:02.74 bitrate=   2.1kbits/s speed=0.0664x    frame=  213 fps=5.1 q=57.0 size=       1kB time=00:00:02.80 bitrate=   2.1kbits/s speed=0.0668x    frame=  215 fps=5.0 q=57.0 size=       1kB time=00:00:02.84 bitrate=   2.1kbits/s speed=0.0667x    frame=  217 fps=5.0 q=57.0 size=       1kB time=00:00:02.88 bitrate=   2.0kbits/s speed=0.0668x    frame=  219 fps=5.0 q=57.0 size=       1kB time=00:00:02.92 bitrate=   2.0kbits/s speed=0.0668x    frame=  223 fps=5.0 q=57.0 size=       1kB time=00:00:03.00 bitrate=   2.0kbits/s speed=0.0674x    frame=  226 fps=5.0 q=57.0 size=       1kB time=00:00:03.06 bitrate=   1.9kbits/s speed=0.0675x    frame=  228 fps=5.0 q=57.0 size=       1kB time=00:00:03.10 bitrate=   1.9kbits/s speed=0.0675x    frame=  229 fps=4.9 q=57.0 size=       1kB time=00:00:03.12 bitrate=   1.9kbits/s speed=0.0672x    frame=  233 fps=5.0 q=57.0 size=       1kB time=00:00:03.20 bitrate=   1.8kbits/s speed=0.0682x    frame=  236 fps=4.9 q=57.0 size=       1kB time=00:00:03.26 bitrate=   1.8kbits/s speed=0.0679x    frame=  239 fps=4.9 q=57.0 size=       1kB time=00:00:03.32 bitrate=   1.8kbits/s speed=0.0683x    frame=  242 fps=4.9 q=57.0 size=       1kB time=00:00:03.38 bitrate=   1.7kbits/s speed=0.0686x    frame=  243 fps=4.9 q=57.0 size=       1kB time=00:00:03.40 bitrate=   1.7kbits/s speed=0.0683x    frame=  246 fps=4.9 q=57.0 size=       1kB time=00:00:03.46 bitrate=   1.7kbits/s speed=0.0688x    frame=  249 fps=4.9 q=57.0 size=       1kB time=00:00:03.52 bitrate=   1.7kbits/s speed=0.0687x    frame=  252 fps=4.8 q=57.0 size=       1kB time=00:00:03.58 bitrate=   1.6kbits/s speed=0.0687x    frame=  256 fps=4.8 q=57.0 size=       1kB time=00:00:03.66 bitrate=   1.6kbits/s speed=0.069x    frame=  260 fps=4.8 q=57.0 size=       1kB time=00:00:03.74 bitrate=   1.6kbits/s speed=0.0694x    frame=  263 fps=4.8 q=57.0 size=       1kB time=00:00:03.80 bitrate=   1.5kbits/s speed=0.0692x    frame=  267 fps=4.8 q=57.0 size=       1kB time=00:00:03.88 bitrate=   1.5kbits/s speed=0.0699x    frame=  269 fps=4.8 q=57.0 size=       1kB time=00:00:03.92 bitrate=   1.5kbits/s speed=0.0695x    frame=  272 fps=4.8 q=57.0 size=       1kB time=00:00:03.98 bitrate=   1.5kbits/s speed=0.0698x    frame=  275 fps=4.7 q=57.0 size=       1kB time=00:00:04.04 bitrate=   1.5kbits/s speed=0.0697x    frame=  278 fps=4.7 q=57.0 size=       1kB time=00:00:04.10 bitrate=   1.4kbits/s speed=0.0696x    frame=  282 fps=4.7 q=57.0 size=       1kB time=00:00:04.18 bitrate=   1.4kbits/s speed=0.0703x    frame=  284 fps=4.7 q=57.0 size=       1kB time=00:00:04.22 bitrate=   1.4kbits/s speed=0.07x    frame=  286 fps=4.7 q=57.0 size=       1kB time=00:00:04.26 bitrate=   1.4kbits/s speed=0.07x    frame=  290 fps=4.7 q=57.0 size=       1kB time=00:00:04.34 bitrate=   1.4kbits/s speed=0.0701x    frame=  294 fps=4.7 q=57.0 size=       1kB time=00:00:04.42 bitrate=   1.3kbits/s speed=0.0704x    frame=  297 fps=4.7 q=57.0 size=       1kB time=00:00:04.48 bitrate=   1.3kbits/s speed=0.0705x    frame=  299 fps=4.7 q=57.0 size=       1kB time=00:00:04.52 bitrate=   1.3kbits/s speed=0.0703x    frame=  302 fps=4.7 q=57.0 size=       1kB time=00:00:04.58 bitrate=   1.3kbits/s speed=0.0706x    frame=  304 fps=4.7 q=57.0 size=       1kB time=00:00:04.62 bitrate=   1.3kbits/s speed=0.0707x    frame=  305 fps=4.6 q=57.0 size=       1kB time=00:00:04.64 bitrate=   1.3kbits/s speed=0.0703x    frame=  309 fps=4.6 q=57.0 size=       1kB time=00:00:04.72 bitrate=   1.2kbits/s speed=0.0705x    frame=  312 fps=4.6 q=57.0 size=       1kB time=00:00:04.78 bitrate=   1.2kbits/s speed=0.0708x    frame=  313 fps=4.6 q=57.0 size=       1kB time=00:00:04.80 bitrate=   1.2kbits/s speed=0.0704x    frame=  318 fps=4.6 q=57.0 size=       1kB time=00:00:04.90 bitrate=   1.2kbits/s speed=0.0712x    frame=  319 fps=4.6 q=57.0 size=       1kB time=00:00:04.92 bitrate=   1.2kbits/s speed=0.071x    frame=  324 fps=4.6 q=57.0 size=    1859kB time=00:00:05.02 bitrate=3033.4kbits/s speed=0.0719x    frame=  327 fps=4.6 q=57.0 size=    1859kB time=00:00:05.08 bitrate=2997.6kbits/s speed=0.0722x    frame=  328 fps=4.6 q=57.0 size=    1859kB time=00:00:05.10 bitrate=2985.8kbits/s speed=0.0719x    frame=  331 fps=4.6 q=57.0 size=    1859kB time=00:00:05.16 bitrate=2951.1kbits/s speed=0.0723x    frame=  334 fps=4.6 q=57.0 size=    1859kB time=00:00:05.22 bitrate=2917.2kbits/s speed=0.0722x    frame=  337 fps=4.6 q=57.0 size=    1859kB time=00:00:05.28 bitrate=2884.1kbits/s speed=0.0724x    frame=  340 fps=4.6 q=57.0 size=    1859kB time=00:00:05.34 bitrate=2851.7kbits/s speed=0.0724x    frame=  341 fps=4.6 q=57.0 size=    1859kB time=00:00:05.36 bitrate=2841.0kbits/s speed=0.0722x    frame=  345 fps=4.6 q=57.0 size=    1859kB time=00:00:05.44 bitrate=2799.2kbits/s speed=0.0726x    frame=  348 fps=4.6 q=57.0 size=    1859kB time=00:00:05.50 bitrate=2768.7kbits/s speed=0.0722x    frame=  351 fps=4.6 q=57.0 size=    1859kB time=00:00:05.56 bitrate=2738.8kbits/s speed=0.0725x    frame=  353 fps=4.6 q=57.0 size=    1859kB time=00:00:05.60 bitrate=2719.3kbits/s speed=0.0725x    frame=  355 fps=4.6 q=57.0 size=    1859kB time=00:00:05.64 bitrate=2700.0kbits/s speed=0.0725x    frame=  357 fps=4.5 q=57.0 size=    1859kB time=00:00:05.68 bitrate=2681.0kbits/s speed=0.0723x    frame=  361 fps=4.5 q=57.0 size=    1859kB time=00:00:05.76 bitrate=2643.8kbits/s speed=0.0724x    frame=  365 fps=4.5 q=57.0 size=    1859kB time=00:00:05.84 bitrate=2607.5kbits/s speed=0.0724x    frame=  368 fps=4.5 q=57.0 size=    1859kB time=00:00:05.90 bitrate=2581.0kbits/s speed=0.0727x    frame=  371 fps=4.5 q=57.0 size=    1859kB time=00:00:05.96 bitrate=2555.1kbits/s speed=0.0727x    frame=  373 fps=4.5 q=57.0 size=    1859kB time=00:00:06.00 bitrate=2538.0kbits/s speed=0.0725x    frame=  377 fps=4.5 q=57.0 size=    1859kB time=00:00:06.08 bitrate=2504.6kbits/s speed=0.0726x    frame=  379 fps=4.5 q=57.0 size=    1859kB time=00:00:06.12 bitrate=2488.3kbits/s speed=0.0725x    frame=  381 fps=4.5 q=57.0 size=    1859kB time=00:00:06.16 bitrate=2472.1kbits/s speed=0.0725x    frame=  385 fps=4.5 q=57.0 size=    1859kB time=00:00:06.24 bitrate=2440.4kbits/s speed=0.0727x    frame=  386 fps=4.5 q=57.0 size=    1859kB time=00:00:06.26 bitrate=2432.6kbits/s speed=0.0724x    frame=  388 fps=4.5 q=57.0 size=    1859kB time=00:00:06.30 bitrate=2417.2kbits/s speed=0.0725x    frame=  392 fps=4.5 q=57.0 size=    1859kB time=00:00:06.38 bitrate=2386.9kbits/s speed=0.0728x    frame=  394 fps=4.4 q=57.0 size=    1859kB time=00:00:06.42 bitrate=2372.0kbits/s speed=0.0724x    frame=  398 fps=4.5 q=57.0 size=    1859kB time=00:00:06.50 bitrate=2342.8kbits/s speed=0.0729x    frame=  399 fps=4.4 q=57.0 size=    1859kB time=00:00:06.52 bitrate=2335.6kbits/s speed=0.0725x    frame=  403 fps=4.4 q=57.0 size=    1859kB time=00:00:06.60 bitrate=2307.3kbits/s speed=0.0723x    frame=  407 fps=4.4 q=57.0 size=    1859kB time=00:00:06.68 bitrate=2279.7kbits/s speed=0.0728x    frame=  409 fps=4.4 q=57.0 size=    1859kB time=00:00:06.72 bitrate=2266.1kbits/s speed=0.0726x    frame=  411 fps=4.4 q=57.0 size=    1859kB time=00:00:06.76 bitrate=2252.7kbits/s speed=0.0726x    frame=  415 fps=4.4 q=57.0 size=    1859kB time=00:00:06.84 bitrate=2226.4kbits/s speed=0.0726x    frame=  419 fps=4.4 q=57.0 size=    1859kB time=00:00:06.92 bitrate=2200.6kbits/s speed=0.0726x    frame=  422 fps=4.4 q=57.0 size=    1859kB time=00:00:06.98 bitrate=2181.7kbits/s speed=0.0728x    frame=  424 fps=4.4 q=57.0 size=    1859kB time=00:00:07.02 bitrate=2169.3kbits/s speed=0.0728x    frame=  426 fps=4.4 q=57.0 size=    1859kB time=00:00:07.06 bitrate=2157.0kbits/s speed=0.0728x    frame=  427 fps=4.4 q=57.0 size=    1859kB time=00:00:07.08 bitrate=2150.9kbits/s speed=0.0726x    frame=  430 fps=4.4 q=57.0 size=    1859kB time=00:00:07.14 bitrate=2132.9kbits/s speed=0.0728x    frame=  433 fps=4.4 q=57.0 size=    1859kB time=00:00:07.20 bitrate=2115.1kbits/s speed=0.0728x    frame=  436 fps=4.4 q=57.0 size=    1859kB time=00:00:07.26 bitrate=2097.6kbits/s speed=0.0728x    frame=  440 fps=4.4 q=57.0 size=    1859kB time=00:00:07.34 bitrate=2074.7kbits/s speed=0.0728x    frame=  443 fps=4.3 q=57.0 size=    1859kB time=00:00:07.40 bitrate=2057.9kbits/s speed=0.0727x    frame=  447 fps=4.3 q=57.0 size=    1859kB time=00:00:07.48 bitrate=2035.9kbits/s speed=0.0728x    frame=  450 fps=4.3 q=57.0 size=    1859kB time=00:00:07.54 bitrate=2019.7kbits/s speed=0.0726x    frame=  453 fps=4.3 q=57.0 size=    1859kB time=00:00:07.60 bitrate=2003.8kbits/s speed=0.0728x    frame=  455 fps=4.3 q=57.0 size=    1859kB time=00:00:07.64 bitrate=1993.3kbits/s speed=0.0728x    frame=  458 fps=4.3 q=57.0 size=    1859kB time=00:00:07.70 bitrate=1977.8kbits/s speed=0.0727x    frame=  460 fps=4.3 q=57.0 size=    1859kB time=00:00:07.74 bitrate=1967.5kbits/s speed=0.0727x    frame=  463 fps=4.3 q=57.0 size=    1859kB time=00:00:07.80 bitrate=1952.4kbits/s speed=0.0728x    frame=  465 fps=4.3 q=57.0 size=    1859kB time=00:00:07.84 bitrate=1942.4kbits/s speed=0.0728x    frame=  467 fps=4.3 q=57.0 size=    1859kB time=00:00:07.88 bitrate=1932.6kbits/s speed=0.0726x    frame=  470 fps=4.3 q=57.0 size=    1859kB time=00:00:07.94 bitrate=1918.0kbits/s speed=0.0728x    frame=  471 fps=4.3 q=57.0 size=    1859kB time=00:00:07.96 bitrate=1913.2kbits/s speed=0.0726x    frame=  475 fps=4.3 q=57.0 size=    1859kB time=00:00:08.04 bitrate=1894.1kbits/s speed=0.0724x    frame=  479 fps=4.3 q=57.0 size=    1859kB time=00:00:08.12 bitrate=1875.5kbits/s speed=0.0724x    frame=  482 fps=4.3 q=57.0 size=    1859kB time=00:00:08.18 bitrate=1861.7kbits/s speed=0.0725x    frame=  485 fps=4.3 q=57.0 size=    1859kB time=00:00:08.24 bitrate=1848.2kbits/s speed=0.0726x    frame=  486 fps=4.3 q=57.0 size=    1859kB time=00:00:08.26 bitrate=1843.7kbits/s speed=0.0724x    frame=  490 fps=4.3 q=57.0 size=    1859kB time=00:00:08.34 bitrate=1826.0kbits/s speed=0.0726x    frame=  491 fps=4.3 q=57.0 size=    1859kB time=00:00:08.36 bitrate=1821.6kbits/s speed=0.0724x    frame=  493 fps=4.2 q=57.0 size=    1859kB time=00:00:08.40 bitrate=1813.0kbits/s speed=0.0722x    frame=  497 fps=4.2 q=57.0 size=    1859kB time=00:00:08.48 bitrate=1795.9kbits/s speed=0.0724x    frame=  500 fps=4.2 q=57.0 size=    1859kB time=00:00:08.54 bitrate=1783.2kbits/s speed=0.0724x    frame=  500 fps=4.2 q=57.0 size=    1859kB time=00:00:08.54 bitrate=1783.2kbits/s speed=0.072x    frame=  500 fps=3.7 q=-1.0 Lsize=    3824kB time=00:00:09.94 bitrate=3151.6kbits/s speed=0.0729x    
video:3820kB audio:0kB subtitle:0kB other streams:0kB global headers:0kB muxing overhead: 0.112813%
bench: utime=508.884s
bench: maxrss=2524596kB
[libx264 @ 0x29a51c0] frame I:2     Avg QP:45.60  size:107320
[libx264 @ 0x29a51c0] frame P:134   Avg QP:50.90  size: 17178
[libx264 @ 0x29a51c0] frame B:364   Avg QP:50.93  size:  3831
[libx264 @ 0x29a51c0] consecutive B-frames:  0.4%  2.8% 14.4% 82.4%
[libx264 @ 0x29a51c0] mb I  I16..4: 27.2% 71.0%  1.8%
[libx264 @ 0x29a51c0] mb P  I16..4: 13.3%  5.8%  0.0%  P16..4: 15.5%  0.2%  1.5%  0.0%  0.0%    skip:63.7%
[libx264 @ 0x29a51c0] mb B  I16..4:  0.0%  0.0%  0.0%  B16..8: 12.9%  0.1%  0.0%  direct: 0.0%  skip:87.0%  L0:33.2% L1:66.8% BI: 0.0%
[libx264 @ 0x29a51c0] final ratefactor: 49.33
[libx264 @ 0x29a51c0] 8x8 transform intra:33.1% inter:96.2%
[libx264 @ 0x29a51c0] direct mvs  spatial:98.9% temporal:1.1%
[libx264 @ 0x29a51c0] coded y,uvDC,uvAC intra: 3.8% 32.9% 0.8% inter: 0.1% 1.3% 0.0%
[libx264 @ 0x29a51c0] i16 v,h,dc,p: 69% 19%  4%  8%
[libx264 @ 0x29a51c0] i8 v,h,dc,ddl,ddr,vr,hd,vl,hu:  7%  2% 77%  3%  3%  2%  3%  2%  2%
[libx264 @ 0x29a51c0] i4 v,h,dc,ddl,ddr,vr,hd,vl,hu:  7%  4%  3% 13% 16% 15% 15% 12% 16%
[libx264 @ 0x29a51c0] i8c dc,h,v,p: 86%  6%  7%  1%
[libx264 @ 0x29a51c0] Weighted P-Frames: Y:0.7% UV:0.0%
[libx264 @ 0x29a51c0] ref P L0: 56.9%  0.6% 17.0%  6.7%  5.3%  5.4%  5.0%  3.0%  0.0%
[libx264 @ 0x29a51c0] ref B L0: 90.1%  3.5%  2.5%  1.1%  1.2%  0.8%  0.8%
[libx264 @ 0x29a51c0] ref B L1: 99.1%  0.9%
[libx264 @ 0x29a51c0] kb/s:3128.88
